<?xml version="1.0" standalone="no"?>
<!DOCTYPE svg PUBLIC "-//W3C//DTD SVG 20010904//EN"
 "http://www.w3.org/TR/2001/REC-SVG-20010904/DTD/svg10.dtd">
<svg version="1.0" xmlns="http://www.w3.org/2000/svg"
 width="8236.000000pt" height="2232.000000pt" viewBox="0 0 8236.000000 2232.000000"
 preserveAspectRatio="xMidYMid meet">
<metadata>
Created by potrace 1.16, written by Peter Selinger 2001-2019
</metadata>
<g transform="translate(0.000000,2232.000000) scale(0.100000,-0.100000)"
fill="#000000" stroke="none">
<path d="M12105 20974 c-652 -33 -1170 -98 -1709 -214 -1700 -365 -3229 -1144
-4551 -2318 -168 -149 -618 -599 -767 -767 -1424 -1604 -2276 -3535 -2487
-5635 -37 -370 -46 -549 -46 -1000 0 -451 9 -630 46 -1000 211 -2099 1063
-4031 2487 -5635 149 -168 599 -618 767 -767 1604 -1423 3536 -2277 5635
-2487 370 -37 549 -46 1000 -46 451 0 630 9 1000 46 2099 210 4031 1064 5635
2487 168 149 618 599 767 767 1424 1604 2276 3535 2487 5635 37 370 46 549 46
1000 0 451 -9 630 -46 1000 -211 2100 -1063 4031 -2487 5635 -149 168 -599
618 -767 767 -1137 1009 -2428 1728 -3850 2142 -691 201 -1378 322 -2140 376
-149 11 -885 21 -1020 14z m950 -1594 c357 -27 671 -67 981 -126 1865 -351
3553 -1331 4799 -2784 1018 -1188 1691 -2663 1914 -4200 66 -454 85 -737 85
-1230 0 -493 -19 -776 -85 -1230 -198 -1359 -748 -2676 -1581 -3785 -1239
-1647 -3029 -2778 -5033 -3180 -569 -114 -1036 -159 -1650 -159 -622 0 -1089
44 -1660 159 -1862 374 -3535 1373 -4768 2845 -979 1170 -1627 2617 -1846
4120 -65 444 -85 737 -85 1225 -1 481 19 769 80 1200 252 1777 1083 3434 2364
4715 1438 1438 3333 2299 5350 2430 91 6 197 12 235 14 129 7 758 -3 900 -14z"/>
<path d="M12818 15781 c-79 -26 -136 -85 -171 -179 l-22 -57 -5 -1770 c-5
-1639 -7 -1774 -23 -1828 -35 -118 -90 -192 -172 -233 -46 -22 -65 -26 -114
-22 -91 6 -106 16 -571 399 -308 253 -1103 908 -1730 1424 -107 88 -307 253
-445 365 -137 112 -396 326 -575 475 -179 149 -442 366 -585 482 -143 117
-388 318 -545 448 -491 407 -519 428 -618 465 -70 27 -157 23 -219 -8 -52 -27
-117 -100 -140 -160 -17 -45 -18 -206 -21 -4172 -2 -3026 0 -4141 8 -4185 7
-33 20 -80 31 -104 63 -145 224 -242 377 -228 155 15 281 119 335 277 l22 65
5 1620 c4 1203 8 1627 17 1646 28 62 81 76 151 40 20 -11 136 -102 258 -203
121 -101 330 -273 465 -383 134 -110 464 -382 734 -605 270 -223 599 -493 731
-602 131 -108 311 -256 399 -328 88 -73 243 -200 344 -283 101 -84 306 -253
455 -377 149 -124 316 -261 371 -306 55 -44 174 -142 265 -218 340 -285 443
-350 555 -349 74 1 126 25 178 82 44 48 62 82 84 158 16 54 18 185 23 1813 l5
1755 23 60 c29 77 81 147 133 182 31 21 57 28 106 31 114 8 119 4 818 -567
165 -135 361 -295 435 -357 74 -61 262 -215 416 -340 155 -126 411 -335 570
-464 159 -129 377 -307 484 -395 107 -88 254 -208 325 -265 72 -57 220 -179
331 -270 222 -183 474 -389 904 -740 157 -128 379 -309 493 -404 115 -94 234
-188 265 -208 106 -71 196 -92 285 -67 58 16 139 100 168 174 l24 60 3 2019
c1 1349 -1 2038 -8 2075 -15 82 -56 159 -119 221 -53 53 -326 278 -816 675
-296 240 -488 396 -729 596 -111 91 -410 333 -664 538 -255 205 -503 405 -551
444 -48 40 -263 216 -477 392 -214 175 -544 445 -734 599 -190 154 -421 343
-515 421 -93 78 -267 219 -385 315 -118 96 -250 202 -293 237 -105 85 -185
125 -262 129 -33 2 -72 0 -87 -5z"/>
<path d="M29185 19089 c-448 -42 -893 -172 -1280 -373 -411 -213 -810 -545
-1087 -903 -315 -406 -520 -907 -594 -1448 -26 -183 -26 -684 -1 -870 93 -691
357 -1247 817 -1719 562 -577 1208 -885 2090 -996 135 -17 655 -24 815 -11
603 50 1138 218 1594 501 384 238 777 624 998 981 232 372 373 777 429 1229
25 199 29 582 10 790 -68 719 -357 1339 -859 1843 -568 570 -1285 902 -2112
977 -130 12 -691 11 -820 -1z m670 -940 c454 -39 860 -172 1190 -389 484 -320
805 -767 924 -1290 45 -197 55 -297 55 -535 0 -238 -8 -319 -50 -525 -69 -343
-211 -638 -432 -901 -446 -530 -1095 -799 -1932 -799 -432 -1 -768 57 -1110
191 -560 218 -1013 679 -1204 1224 -83 237 -115 426 -123 726 -8 284 12 476
72 699 178 664 709 1216 1400 1457 184 64 456 121 675 141 135 13 394 14 535
1z"/>
<path d="M37065 19089 c-643 -64 -1227 -283 -1705 -639 -612 -457 -1006 -1039
-1169 -1730 -138 -584 -114 -1266 66 -1824 106 -329 270 -636 485 -909 96
-121 378 -405 498 -501 111 -88 338 -240 466 -310 299 -164 686 -297 1039
-356 266 -44 351 -52 655 -57 339 -6 515 3 790 43 517 74 936 219 1321 459
277 172 638 486 701 609 29 57 21 134 -19 184 -62 77 -422 372 -498 408 -99
47 -158 26 -324 -115 -289 -247 -538 -388 -883 -502 -580 -192 -1349 -189
-1943 6 -703 230 -1216 755 -1394 1426 -63 236 -76 345 -76 649 0 238 3 292
22 400 82 466 264 820 588 1146 466 468 1127 703 1915 681 702 -20 1289 -223
1751 -605 135 -112 176 -141 222 -153 86 -23 151 11 452 236 156 117 191 155
202 220 11 65 -21 120 -136 239 -522 536 -1198 865 -2006 977 -126 18 -211 22
-540 24 -214 2 -430 -1 -480 -6z"/>
<path d="M41995 18895 c-50 -18 -100 -71 -114 -122 -8 -26 -11 -884 -11 -2839
0 -3058 -4 -2863 57 -2926 59 -62 -100 -58 2487 -58 1676 0 2373 3 2401 11 60
16 101 52 122 106 16 43 18 81 18 358 l0 311 -26 49 c-18 36 -38 57 -70 75
l-44 25 -1945 5 -1945 5 -43 23 c-33 17 -49 35 -65 70 -22 47 -22 51 -22 722
0 371 4 692 8 712 9 43 49 95 86 111 19 9 390 13 1416 17 l1390 5 53 24 c41
18 59 34 80 70 l27 46 3 310 c4 325 0 362 -41 419 -11 16 -41 38 -66 50 l-46
21 -1395 5 c-1372 5 -1396 5 -1429 25 -54 32 -72 64 -82 146 -11 101 -11 1036
1 1127 11 85 36 126 89 151 33 15 203 16 1911 21 l1875 5 50 25 c37 18 57 37
75 70 25 45 25 46 28 348 3 251 1 311 -12 356 -18 62 -64 109 -123 125 -26 8
-766 11 -2348 11 -1965 -1 -2316 -3 -2350 -15z"/>
<path d="M50910 18901 c-44 -14 -84 -38 -111 -68 -54 -58 8 70 -909 -1883
-128 -272 -371 -790 -540 -1150 -169 -360 -410 -873 -535 -1140 -125 -267
-320 -681 -433 -920 -256 -545 -271 -579 -278 -632 -7 -55 18 -105 66 -133 33
-19 51 -20 395 -20 l360 0 53 29 c37 21 64 46 90 86 21 31 109 211 196 401
351 763 338 738 419 782 l42 22 1655 0 1655 0 43 -23 c23 -12 58 -44 76 -70
19 -26 126 -245 237 -487 309 -672 303 -662 391 -711 l53 -29 360 0 c343 0
362 1 395 20 19 11 43 38 54 59 17 35 18 42 3 99 -8 34 -140 328 -292 652
-153 325 -344 732 -425 905 -81 173 -269 574 -418 890 -616 1312 -977 2082
-1189 2535 -337 717 -339 721 -427 768 -40 22 -49 22 -501 24 -253 1 -471 -2
-485 -6z m539 -1099 c28 -29 106 -187 328 -663 160 -343 402 -862 538 -1154
136 -291 254 -547 261 -569 8 -21 14 -57 14 -81 0 -48 -26 -80 -81 -95 -49
-14 -2212 -13 -2262 1 -58 16 -77 40 -77 99 0 60 -8 42 370 845 150 319 359
765 465 990 263 561 283 602 317 635 43 43 81 40 127 -8z"/>
<path d="M55855 18894 c-53 -19 -81 -48 -102 -103 -17 -44 -18 -189 -18 -2866
l0 -2821 26 -49 c18 -36 38 -57 70 -75 l44 -25 320 0 320 0 47 27 c33 20 53
41 70 75 l23 48 5 2200 c5 2066 6 2202 22 2232 21 38 45 47 84 33 55 -21 -63
118 1558 -1840 358 -432 985 -1190 1394 -1685 410 -495 776 -932 815 -972 119
-122 98 -117 587 -121 290 -2 431 0 468 8 69 15 124 67 140 133 9 34 12 755
12 2840 0 3096 5 2864 -65 2926 -19 16 -51 35 -72 40 -23 7 -158 11 -334 11
l-295 0 -54 -27 c-66 -34 -89 -74 -101 -176 -4 -40 -9 -1030 -9 -2202 -1
-1622 -4 -2138 -13 -2165 -7 -19 -24 -41 -38 -49 -24 -13 -30 -13 -65 6 -46
23 -95 81 -729 848 -258 314 -683 829 -944 1145 -1199 1452 -1387 1680 -1696
2055 -366 443 -417 500 -490 535 l-50 25 -445 2 c-370 2 -452 0 -485 -13z"/>
<path d="M78035 9153 c-210 -26 -432 -112 -603 -233 -243 -171 -428 -471 -487
-789 -19 -106 -20 -322 0 -432 66 -376 309 -710 642 -882 319 -165 684 -190
1013 -72 427 155 727 515 806 969 22 125 14 367 -16 486 -91 366 -320 660
-638 819 -115 58 -271 108 -389 126 -89 14 -253 18 -328 8z m378 -272 c200
-52 363 -146 493 -284 507 -538 277 -1407 -432 -1630 -312 -99 -669 -31 -931
178 -253 199 -400 551 -363 866 32 282 170 532 378 690 124 94 316 175 467
199 94 14 298 4 388 -19z"/>
<path d="M77610 7910 l0 -650 135 0 135 0 0 266 0 267 79 -5 c172 -10 227 -65
405 -400 l68 -128 164 0 c90 0 164 2 164 4 0 13 -245 410 -281 454 -23 29 -64
66 -92 82 l-50 28 44 12 c166 41 279 155 297 298 20 156 -45 299 -167 365 -89
49 -167 57 -552 57 l-349 0 0 -650z m614 430 c87 -13 129 -38 157 -96 39 -82
7 -174 -78 -215 -40 -20 -66 -22 -234 -27 l-189 -5 0 177 0 176 138 0 c75 0
168 -5 206 -10z"/>
<path d="M26643 9050 c-86 -18 -130 -57 -152 -135 -15 -55 -16 -5623 0 -5678
16 -57 63 -104 122 -122 73 -22 580 -22 653 0 49 14 89 47 115 95 12 21 15
384 19 2210 l5 2185 22 48 c17 36 27 47 45 47 41 0 86 -38 156 -132 38 -51
554 -786 1147 -1633 593 -847 1107 -1580 1143 -1628 102 -139 180 -169 267
-103 44 34 17 -3 1315 1835 608 860 1125 1585 1150 1612 75 80 129 74 150 -17
6 -23 10 -930 10 -2154 0 -1163 4 -2145 9 -2181 12 -93 34 -134 90 -167 l46
-27 298 -3 c247 -3 306 -1 351 12 69 20 110 65 126 138 8 39 10 785 8 2858
l-3 2805 -25 44 c-18 32 -39 52 -75 70 l-49 26 -395 3 c-426 4 -496 -2 -567
-43 -23 -14 -61 -46 -85 -73 -24 -27 -550 -766 -1168 -1643 -619 -877 -1146
-1615 -1172 -1641 -42 -44 -50 -48 -94 -48 -45 0 -52 4 -94 48 -25 26 -173
228 -327 447 -1294 1839 -1897 2694 -1955 2772 -68 91 -121 137 -189 164 -27
10 -125 14 -445 15 -225 1 -429 -1 -452 -6z"/>
<path d="M37513 9050 c-124 -26 -154 -65 -317 -411 -68 -145 -368 -784 -666
-1419 -1016 -2163 -1082 -2305 -1230 -2620 -81 -173 -239 -508 -350 -745 -111
-236 -216 -461 -232 -498 -51 -119 -38 -195 40 -234 34 -16 72 -18 435 -21
461 -3 479 -1 550 71 49 49 61 73 338 676 228 497 247 528 342 556 44 13 245
15 1599 15 1097 0 1562 -3 1593 -11 71 -18 117 -66 178 -187 30 -59 143 -301
251 -538 112 -245 214 -452 234 -480 23 -29 57 -58 87 -73 l49 -26 421 0 c391
0 423 1 458 19 64 32 84 105 53 192 -11 33 -464 1000 -1426 3049 -103 220
-310 661 -460 980 -792 1688 -738 1577 -788 1629 -20 21 -57 48 -82 60 -44 20
-58 21 -540 23 -272 1 -514 -3 -537 -7z m552 -1212 c45 -20 58 -46 445 -878
37 -80 110 -237 163 -350 130 -280 144 -311 312 -670 184 -393 187 -401 183
-463 -4 -59 -29 -84 -99 -98 -67 -12 -2037 -11 -2097 2 -69 14 -97 46 -96 108
0 40 28 107 173 415 95 203 190 405 210 450 53 113 498 1061 579 1231 120 254
150 288 227 253z"/>
<path d="M41857 9046 c-59 -16 -96 -42 -122 -87 -19 -32 -20 -52 -20 -369 0
-397 -1 -394 100 -445 l60 -30 1117 -5 c1108 -5 1117 -5 1144 -26 50 -37 66
-68 75 -145 4 -41 8 -1107 9 -2369 0 -1569 3 -2307 11 -2333 16 -57 63 -104
122 -122 73 -22 581 -22 654 0 59 18 106 65 122 122 8 26 11 772 12 2358 0
1276 4 2342 8 2368 9 52 31 89 75 121 27 21 36 21 1139 26 l1112 5 58 27 c52
24 60 33 83 82 l25 55 -3 323 c-3 305 -4 325 -24 358 -26 45 -72 76 -135 89
-80 17 -5558 14 -5622 -3z"/>
<path d="M48962 9049 c-65 -12 -108 -44 -134 -97 l-23 -47 -3 -2800 c-1 -1917
1 -2816 8 -2851 6 -29 23 -65 41 -87 59 -72 -134 -67 2494 -67 2616 0 2432 -5
2493 64 18 21 34 55 41 86 14 67 15 562 0 630 -13 62 -49 106 -109 134 l-45
21 -1940 5 c-1917 5 -1940 5 -1974 25 -19 11 -43 33 -55 48 -21 28 -21 32 -21
750 0 702 1 723 20 755 11 18 39 42 65 55 l45 22 1390 5 c1536 6 1430 1 1487
68 50 59 53 85 53 397 0 313 -6 360 -51 408 -14 15 -39 35 -57 44 -30 17 -120
18 -1427 23 -1256 5 -1399 7 -1430 21 -50 23 -88 71 -95 122 -3 23 -5 308 -3
634 3 583 3 592 24 620 12 15 36 37 55 48 34 20 57 20 1909 25 1636 4 1879 7
1910 20 53 22 76 41 102 85 23 40 23 42 23 370 0 310 -1 332 -20 370 -24 49
-70 80 -136 94 -61 13 -4571 13 -4637 0z"/>
<path d="M55567 9046 c-66 -18 -98 -43 -127 -102 l-25 -49 0 -2820 0 -2821 26
-49 c18 -36 38 -57 70 -75 44 -25 46 -25 339 -28 196 -2 310 1 340 8 58 15
102 49 126 97 18 36 19 82 24 1013 5 960 5 976 26 1010 11 19 40 46 65 60 l44
25 960 -1 c787 0 970 -3 1010 -14 99 -28 111 -45 771 -1093 335 -532 628 -988
652 -1013 24 -25 64 -55 90 -67 46 -21 58 -22 432 -22 350 0 388 2 417 18 73
39 84 106 35 204 -17 32 -278 465 -582 963 -304 498 -563 928 -576 955 -55
116 -21 167 156 231 411 147 706 406 890 779 137 278 194 552 193 925 -2 595
-172 1060 -512 1400 -207 207 -444 340 -739 414 -253 65 -99 60 -2172 63
-1530 2 -1894 -1 -1933 -11z m3608 -951 c270 -41 481 -145 606 -299 131 -162
192 -367 191 -646 -1 -218 -39 -374 -128 -517 -114 -184 -300 -293 -599 -351
-69 -13 -262 -16 -1387 -19 -891 -3 -1326 -1 -1365 7 -66 12 -100 33 -128 81
-20 33 -20 52 -20 834 0 788 0 801 21 840 14 27 34 47 64 63 l44 22 1301 0
c1105 0 1315 -2 1400 -15z"/>
<path d="M62572 9050 c-62 -13 -104 -42 -132 -92 l-25 -43 -3 -2805 c-2 -2073
0 -2819 8 -2858 16 -73 57 -118 126 -138 45 -13 104 -15 351 -12 l298 3 46 27
c57 34 78 75 91 177 5 44 7 1230 6 2831 l-3 2755 -21 45 c-25 53 -45 73 -99
97 -35 15 -77 18 -320 20 -154 1 -299 -2 -323 -7z"/>
<path d="M67261 9044 c-61 -16 -108 -48 -147 -99 -28 -38 -48 -78 -849 -1785
-293 -624 -795 -1693 -1115 -2375 -321 -682 -608 -1294 -638 -1360 -48 -104
-56 -128 -56 -183 -1 -59 1 -66 31 -92 54 -48 86 -51 451 -48 325 3 338 4 378
25 86 46 106 81 353 619 128 280 248 533 267 561 49 76 93 101 195 114 55 6
629 9 1654 7 l1570 -3 53 -24 c32 -14 65 -40 84 -64 18 -22 139 -272 270 -556
131 -284 254 -539 273 -567 23 -34 53 -61 88 -80 l52 -29 337 -3 c220 -2 350
1 377 8 88 24 125 86 102 176 -6 25 -182 408 -390 852 -208 444 -483 1030
-611 1302 -128 272 -334 711 -457 975 -124 264 -335 712 -468 995 -133 283
-344 734 -470 1003 -126 268 -245 509 -265 535 -24 32 -54 56 -95 77 l-60 30
-430 2 c-355 2 -439 0 -484 -13z m528 -1088 c13 -12 61 -97 107 -191 119 -244
971 -2075 1011 -2170 36 -89 40 -122 18 -165 -29 -57 9 -55 -1210 -55 -1050 0
-1122 1 -1152 18 -39 21 -53 45 -53 90 0 50 11 76 193 462 90 193 300 640 467
995 494 1054 478 1024 533 1038 38 10 54 6 86 -22z"/>
<path d="M72112 9050 c-62 -13 -109 -46 -135 -94 l-22 -41 -3 -2805 c-2 -2073
0 -2819 8 -2858 7 -33 23 -66 42 -88 61 -69 -117 -64 2433 -64 2551 0 2372 -5
2434 65 16 19 35 51 40 72 14 50 14 605 1 655 -15 51 -56 97 -110 122 l-45 21
-1880 5 c-1857 5 -1880 5 -1914 25 -19 11 -43 33 -55 48 l-21 28 -5 2372 c-4
1876 -8 2380 -18 2409 -18 52 -55 93 -104 114 -38 16 -77 19 -323 20 -154 2
-299 -1 -323 -6z"/>
</g>
</svg>
